<svg xmlns="http://www.w3.org/2000/svg" viewBox="113.65 132.83 285.25 242.1">
  <path d="M298.07 217.07c7.19-12 9.79-26.83 6-40.28-3.93-14.08-15.16-26.18-29.25-30.08-16-4.42-33.08 1.67-47.37 10.1s-27.18 19.32-42.45 25.88c-4.39 1.88-9.51 3.37-13.8 1.31-13.82-6.64 7.28-18.59 12-21.47A238.54 238.54 0 0 1 220.28 144c18.47-7.3 38.42-12.32 58.1-9.73s39 13.93 47.11 32.07c6.49 14.6 5.08 31.39 2.63 47.18-.78 5.06-1.8 10.4-5.26 14.17-5.15 5.61-13.91 5.86-21.42 4.51-2.78-.49-5.89-1.44-7.08-4-1.44-3.13.79-6.6 2.66-9.49q.54-.78 1.05-1.64Z" style="fill:#cfd8dc"/>
  <g style="clip-path:url(#a)">
      <path d="M192.89 156.92c-3.26 1.8-6.49 3.66-9.67 5.61-4.71 2.88-25.81 14.83-12 21.47 4.29 2.06 9.41.57 13.8-1.31a126.31 126.31 0 0 0 18.8-10.41c-1.93-8.92-6.32-13.28-10.93-15.36Z" style="fill:#fff"/>
  </g>
  <path d="M298.07 217.07c7.19-12 9.79-26.83 6-40.28-3.93-14.08-15.16-26.18-29.25-30.08-16-4.42-33.08 1.67-47.37 10.1s-27.18 19.32-42.45 25.88c-4.39 1.88-9.51 3.37-13.8 1.31-13.82-6.64 7.28-18.59 12-21.47A238.54 238.54 0 0 1 220.28 144c18.47-7.3 38.42-12.32 58.1-9.73s39 13.93 47.11 32.07c6.49 14.6 5.08 31.39 2.63 47.18-.78 5.06-1.8 10.4-5.26 14.17-5.15 5.61-13.91 5.86-21.42 4.51-2.78-.49-5.89-1.44-7.08-4-1.44-3.13.79-6.6 2.66-9.49q.54-.78 1.05-1.64Z" style="fill:none;stroke:#263238;stroke-miterlimit:10;stroke-width:1.5px"/>
  <path d="M298.07 217.07c7.19-12 9.79-26.83 6-40.28-3.93-14.08-15.16-26.18-29.25-30.08-16-4.42-33.08 1.67-47.37 10.1s-27.18 19.32-42.45 25.88c-4.39 1.88-9.51 3.37-13.8 1.31-13.82-6.64 7.28-18.59 12-21.47A238.54 238.54 0 0 1 220.28 144c18.47-7.3 38.42-12.32 58.1-9.73s39 13.93 47.11 32.07c6.49 14.6 5.08 31.39 2.63 47.18-.78 5.06-1.8 10.4-5.26 14.17-5.15 5.61-13.91 5.86-21.42 4.51-2.78-.49-5.89-1.44-7.08-4-1.44-3.13.79-6.6 2.66-9.49q.54-.78 1.05-1.64Z" style="fill:#cfd8dc"/>
  <g style="clip-path:url(#a)">
      <path d="M293.88 147.26c-3.06 5.94 0 7.43 0 7.43s-.3-2.47 1.59-6.86a10.07 10.07 0 0 1 5.21-5.56s-3.74-.96-6.8 4.99ZM277.37 140.29c-2.12 5.25.39 6.74.39 6.74a14.55 14.55 0 0 1 .93-6.14c1.27-3.89 3.83-4.79 3.83-4.79s-3.02-1.1-5.15 4.19ZM258.24 138.14c-2.12 5.25.39 6.74.39 6.74a14.41 14.41 0 0 1 .92-6.14c1.28-3.89 3.83-4.79 3.83-4.79s-3.02-1.06-5.14 4.19ZM314.75 154.31s-2.75-3.4-9.59-.48-5.07 6.31-5.07 6.31 1.43-2.29 6.15-4.7a11.67 11.67 0 0 1 8.51-1.13ZM311.55 166.59a11.72 11.72 0 0 1 8.41-1.73s-3-3.2-9.61.21-4.6 6.65-4.6 6.65 1.25-2.39 5.8-5.13ZM315 178c-9 2.2-7.8 6.8-7.8 6.8s2.34-2.56 8.64-4.57 10.46.41 10.46.41-2.3-4.81-11.3-2.64ZM314.86 198.76c-9.06 1.82-8.08 6.47-8.08 6.47s2.45-2.46 8.83-4.21 10.43.84 10.43.84-2.12-4.93-11.18-3.1Z" style="fill:#263238"/>
      <path d="M192.89 156.92c-3.26 1.8-6.49 3.66-9.67 5.61-4.71 2.88-25.81 14.83-12 21.47 4.29 2.06 9.41.57 13.8-1.31a126.31 126.31 0 0 0 18.8-10.41c-1.93-8.92-6.32-13.28-10.93-15.36Z" style="fill:#fff"/>
  </g>
  <path d="M298.07 217.07c7.19-12 9.79-26.83 6-40.28-3.93-14.08-15.16-26.18-29.25-30.08-16-4.42-33.08 1.67-47.37 10.1s-27.18 19.32-42.45 25.88c-4.39 1.88-9.51 3.37-13.8 1.31-13.82-6.64 7.28-18.59 12-21.47A238.54 238.54 0 0 1 220.28 144c18.47-7.3 38.42-12.32 58.1-9.73s39 13.93 47.11 32.07c6.49 14.6 5.08 31.39 2.63 47.18-.78 5.06-1.8 10.4-5.26 14.17-5.15 5.61-13.91 5.86-21.42 4.51-2.78-.49-5.89-1.44-7.08-4-1.44-3.13.79-6.6 2.66-9.49q.54-.78 1.05-1.64Z" style="fill:none;stroke:#263238;stroke-miterlimit:10;stroke-width:1.5px"/>
  <path d="M282 339.57s42.15 3.73 33.08 7.47-16 2.13-52.29 6.93-88.57 4.81-112.58 4.81-30.41 4.27-16.54 4.27 42.15 0 97.11 2.13 120 14.94 153.12 1.6 1.07-25.08 1.07-25.08 12.81-2.66 2.14-6.93-51.76-8.54-71-11.21-29.87 3.2-16.54 3.2 76.3 6.41 68.3 11.74-46.95-.53-59.76-3.2-29.34 0-26.11 4.27Z" style="fill:#e1e1e1"/>
  <path d="M327.67 317.8s3.39 16.64 8.62 25.58 15.72 8.32 17.26 1.23-5.54-16-7.39-22.8-1.54-18.8-1.54-18.8-17.57-1.54-16.95 14.79Z" style="fill:#cfd8dc"/>
  <g style="clip-path:url(#b)">
      <path d="M333.35 337.19a47.58 47.58 0 0 0 2.94 6.19c5.24 8.94 15.72 8.32 17.26 1.23 1.15-5.25-2.45-11.52-5.14-17.17a18.8 18.8 0 0 0-15.06 9.75Z" style="fill:#fff"/>
  </g>
  <path d="M327.67 317.8s3.39 16.64 8.62 25.58 15.72 8.32 17.26 1.23-5.54-16-7.39-22.8-1.54-18.8-1.54-18.8-17.57-1.54-16.95 14.79Z" style="fill:none;stroke:#263238;stroke-miterlimit:10;stroke-width:1.5px"/>
  <path d="M342.46 338.45s4.31 5.55 3.08 11.1M347.7 336.29a9.08 9.08 0 0 1 4 11.1" style="fill:none;stroke:#263238;stroke-linecap:round;stroke-miterlimit:10;stroke-width:1.5px"/>
  <path d="M317.8 326.43s-8.93 9.25-18.49 12-19.11 2.16-17.87-2.16 5.54-5.85 11.09-5.85 17-11.41 17-11.41 12.28-7.68 8.27 7.42Z" style="fill:#cfd8dc;stroke:#263238;stroke-miterlimit:10;stroke-width:1.5px"/>
  <path d="M209.93 281.13s-13.25 6.16-15.72 12.94a92.1 92.1 0 0 0-3.69 14.18s-16.65 7.7-29.28 12-25.58 5.85-33 11.09-7.71 11.1-3.39 15.41 12.94 2.78 15.72 1.23 9.24-7.7 17.87-9.24 34.52 3.7 49.62.61 28-8 31.44-8 17 1.85 25.89-4 3.08-33-3.7-46.23-42.51-4.62-51.76.01Z" style="fill:#cfd8dc"/>
  <g style="clip-path:url(#c)">
      <path d="M241.36 305.53c-5.35-8.86-9.74-25.5-18.25-28.76a69 69 0 0 0-13.18 4.36s-1.38.64-3.34 1.74c-3.15 3.61-3 7.53.15 10 5.2 4 23.66 25.39 18.47 23.65a10.58 10.58 0 0 1-2.42-1.25c-5.58-3.65-14.19-13.07-20.66-16.05-7.5-3.47 6.92 15.57 6.92 21.34s-5.77.58-11-5.77-6.35-.57-3.46 5.77-1.16 9.23-13.27 9.23-26.54.58-26.54.58a13.08 13.08 0 0 0-3.63-7.1c-9.09 2.42-17.5 4.28-22.93 8.12-7.4 5.24-7.71 11.1-3.39 15.41s12.94 2.78 15.72 1.23 9.24-7.7 17.87-9.24 34.52 3.7 49.62.61 28-8 31.44-8c3.16 0 15.14 1.6 24-2.91-3.55-2.93-16.56-13.75-22.12-22.96Z" style="fill:#fff"/>
  </g>
  <path d="M209.93 281.13s-13.25 6.16-15.72 12.94a92.1 92.1 0 0 0-3.69 14.18s-16.65 7.7-29.28 12-25.58 5.85-33 11.09-7.71 11.1-3.39 15.41 12.94 2.78 15.72 1.23 9.24-7.7 17.87-9.24 34.52 3.7 49.62.61 28-8 31.44-8 17 1.85 25.89-4 3.08-33-3.7-46.23-42.51-4.62-51.76.01Z" style="fill:none;stroke:#263238;stroke-miterlimit:10;stroke-width:1.5px"/>
  <circle cx="128.26" cy="339.37" r="2.47" style="fill:#263238"/>
  <circle cx="138.43" cy="338.14" r="4.62" style="fill:#263238"/>
  <circle cx="132.27" cy="344.92" r="2.47" style="fill:#263238"/>
  <circle cx="138.43" cy="344.92" r="2.47" style="fill:#263238"/>
  <path d="M230.89 308.55c14.18 15.41 24.66 22.2 39.14 24s33.29 0 47.77-6.16 17.88-10.17 17.88-10.17a85.17 85.17 0 0 0 9.86-5.86c7.09-4.62 20-18.18 23.42-35.75 2.92-15.13.52-31.9-7.25-45.28-9-15.56-25.56-23.53-43.28-23.84-10.77-.18-20.75 3.69-29.6 9.64-16.95 11.4-21 21.27-21 21.27h-17.52s-8.63-3.39-24.35 12.63" style="fill:#cfd8dc"/>
  <g style="clip-path:url(#d)">
      <path d="M357.33 279c-1.15-11-6.92 1.16-8.65 5.19-3.41 8-1.73-19-6.93-25.38s1.16 15.58-.57 23.08-.58-5.2-4.62-12.7 1.73 9.81-6.92 19.62-24.24.58-24.24.58c7.24 20.49-12.12 36.22-24.53 43.89 12.26.06 25.86-2.13 36.93-6.84 14.49-6.16 17.88-10.17 17.88-10.17a85.17 85.17 0 0 0 9.86-5.86A41.51 41.51 0 0 0 351 306c4.82-9.65 7.14-19.32 6.33-27Z" style="fill:#fff"/>
  </g>
  <path d="M230.89 308.55c14.18 15.41 24.66 22.2 39.14 24s33.29 0 47.77-6.16 17.88-10.17 17.88-10.17a85.17 85.17 0 0 0 9.86-5.86c7.09-4.62 20-18.18 23.42-35.75 2.92-15.13.52-31.9-7.25-45.28-9-15.56-25.56-23.53-43.28-23.84-10.77-.18-20.75 3.69-29.6 9.64-16.95 11.4-21 21.27-21 21.27h-17.52s-8.63-3.39-24.35 12.63" style="fill:none;stroke:#263238;stroke-miterlimit:10;stroke-width:1.5px"/>
  <path d="M214.86 287.6s10.48 16 28 20 21.88-20.34 20.34-33-7.09-12.33-9.24-9.55-12.33 11.09-22.5 13.25-18.14 3.75-16.6 9.3Z" style="fill:#fff"/>
  <path d="M201.2 219.2a51.83 51.83 0 0 0-10.17-.68c-4.07.34-12.21 4.07-15.94 4.74s-2 2 2.72 7.46 15.93 8.82 15.93 8.82Z" style="fill:#cfd8dc;stroke:#263238;stroke-miterlimit:10;stroke-width:1.5px"/>
  <path d="M259.85 258.86s-5.76 14.58-14.57 19.33a39.52 39.52 0 0 1-17 4.75s-6.1 5.76-17.29 6.44-18-9.5-18-12.89v-9.15s-7.12-8.82-6.78-13.56.68-26.11 12.89-34.58 24.07-7.46 33.56-5.43 20 13.56 23.39 20.34 3.4 15.26 3.4 15.26" style="fill:#cfd8dc"/>
  <g style="clip-path:url(#e)">
      <path d="m211.94 273.8-5.2-8.66s-1.15-10.38-6.92-16.15S198 267 198 267a16.78 16.78 0 0 0-4.9 1.92v7.56c0 3.39 6.78 13.57 18 12.89a32.15 32.15 0 0 0 11.88-3c-1.88-8.86-11.04-12.57-11.04-12.57Z" style="fill:#fff"/>
      <path d="M210.32 270s3.41-6.82 12.36-1.71M191.57 261.05s3.41-2.14 4.26 3.83" style="fill:none;stroke:#263238;stroke-linecap:round;stroke-miterlimit:10;stroke-width:2px"/>
      <path d="M200.94 283.64s2.13 3.83 5.55 5.11" style="fill:none;stroke:#263238;stroke-linecap:round;stroke-miterlimit:10"/>
      <path d="M214.24 247.84s2.31 8.07 13.85 9.8 15.44-2.87 11.76-6.91-23.3-2.89-25.61-2.89Z" style="fill:#263238"/>
      <path d="M239.85 250.73s-9.49 2.71-16.95 2.71-10.85-6.44-12.55-8.44 6.78-9.49 17-7.46 12.5 13.19 12.5 13.19Z" style="fill:#cfd8dc;stroke:#263238;stroke-miterlimit:10;stroke-width:1.5px"/>
      <path d="M204 283.47c.84-.73 1-1.94-.61-2.47-2.13-.7-5.58-1.56-4.86.58a3.88 3.88 0 0 0 4 2.49 2.5 2.5 0 0 0 1.47-.6ZM250 269.18s-2.31 1.73-9.24 1.73-12.11-.57-12.11-.57 8.65 2.88 13.27 3.46 8.08-4.62 8.08-4.62ZM243.09 277.26s-4 3.46-8.65 1.73-10.39-4.61-10.39-4.61 14.43 4.04 19.04 2.88ZM216 225.33s-9.8 4-11 15 0 17.3 0 17.3 2.32-21.91 11-32.3ZM200.4 227.07s-5.82 2.44-6.66 12.47-.84 17-.84 17 2.88-21.4 7.5-29.47Z" style="fill:#263238"/>
  </g>
  <path d="M259.85 258.86s-5.76 14.58-14.57 19.33a39.52 39.52 0 0 1-17 4.75s-6.1 5.76-17.29 6.44-18-9.5-18-12.89v-9.15s-7.12-8.82-6.78-13.56.68-26.11 12.89-34.58 24.07-7.46 33.56-5.43 20 13.56 23.39 20.34 3.4 15.26 3.4 15.26" style="fill:none;stroke:#263238;stroke-miterlimit:10;stroke-width:1.5px"/>
  <path d="M193.06 276.49s-15.18-4.3-24.12-4.61M193.29 279s-21-1.85-30.82 0M194.83 281.13s-25 1.23-32.36 3.69M214.86 286.36s1.85 14.18 2.78 24M216.4 283.59s10.18 15.72 10.18 23.42M220.1 282.67s12 10.17 14.49 19.41" style="fill:none;stroke:#263238;stroke-linecap:round;stroke-miterlimit:10;stroke-width:.5px"/>
  <path d="M335.68 316.26s16.95-13.87 14.48-44.69" style="fill:none;stroke:#263238;stroke-linecap:round;stroke-miterlimit:10;stroke-width:1.5px"/>
  <path d="M281.13 280.2s10.48.31 23.73 7.4 26.5 10.48 26.5 18.18-27.43 23.73-40.68 33.59-23.73 19.42-33 21.89-21.26 2.77-22.8-3.39 6.47-7.71 11.09-8.32 12.33-2.47 12.33-2.47L274 332s-17.88-1.23-26.2-15.72" style="fill:#cfd8dc"/>
  <g style="clip-path:url(#f)">
      <path d="M256.94 325.15s10.38-1.15 16.15-10.39 7.5-20.77 7.5-20.77 0 13.27-4 21.93-19.65 9.23-19.65 9.23ZM289.25 288.8s5.77 11.54.58 20.77a35.09 35.09 0 0 1-13.27 13.27s15-13.84 12.69-34.04ZM271.94 340.15l8.65 5.77s-.59-7.5-8.65-5.77ZM280 331.5l8.65 5.77s-.55-7.51-8.65-5.77ZM295.6 321.69l8.65 5.77s-.58-7.46-8.65-5.77ZM304.83 313l8.65 5.77s-.57-7.47-8.65-5.77Z" style="fill:#263238"/>
      <path d="M262.76 354c-.59-2.77-4.15-4.86-7.36-6.22-2.66.59-6.6 1.42-9.41 1.8-4.62.61-12.63 2.15-11.09 8.32s13.56 5.85 22.8 3.39a30.91 30.91 0 0 0 6.69-2.81 17.76 17.76 0 0 1-1.63-4.48ZM299.63 313c4-5.77-1.15 2.31-13.27 9.81s-29.42 2.31-29.42 2.31l-.55.36A39 39 0 0 0 274 332l-7 6.77c12.88-4.77 28.85-20.33 32.63-25.77Z" style="fill:#fff"/>
  </g>
  <path d="M281.13 280.2s10.48.31 23.73 7.4 26.5 10.48 26.5 18.18-27.43 23.73-40.68 33.59-23.73 19.42-33 21.89-21.26 2.77-22.8-3.39 6.47-7.71 11.09-8.32 12.33-2.47 12.33-2.47L274 332s-17.88-1.23-26.2-15.72" style="fill:none;stroke:#263238;stroke-miterlimit:10;stroke-width:1.5px"/>
  <path d="M274 332s25.27-4.93 28.35-26.2M234.9 357.87s2.46-4.63 6.16-5.24M238.9 361.26s1.85-6.78 7.4-6.78" style="fill:none;stroke:#263238;stroke-linecap:round;stroke-miterlimit:10;stroke-width:1.5px"/>
  <path d="M276 238.6s17.31 1.74 30 14.43 15 36.35 15 30-3.46-23.65-11-32.89-28.83-14.42-34-11.54ZM262.49 245.28s13.93 1.39 24.14 11.6S298.7 286.13 298.7 281s-2.79-19-8.82-26.46-23.21-11.54-27.39-9.26Z" style="fill:#263238"/>
  <path d="M286.94 228.8s17.31 1.73 30 14.42 15 36.35 15 30-3.46-23.65-11-32.88-28.81-14.43-34-11.54ZM301.37 212.06s17.3 1.73 30 14.43 15 36.35 15 30-3.46-23.66-11-32.89-28.81-14.42-34-11.54Z" style="fill:#263238"/>
  <ellipse cx="134.92" cy="369.33" rx="12" ry="5.6" style="fill:#263238"/>
  <circle cx="130.73" cy="356.63" r="16.33" style="fill:#cfd8dc;stroke:#263238;stroke-miterlimit:10;stroke-width:1.5px"/>
  <path d="M130.08 349.22a4.39 4.39 0 1 1-4.39-4.56 4.47 4.47 0 0 1 4.39 4.56Z" style="fill:#fff"/>
</svg>